<?xml version="1.0" encoding="utf-8"?>
<!-- Generator: Adobe Illustrator 17.0.0, SVG Export Plug-In . SVG Version: 6.00 Build 0)  -->
<!DOCTYPE svg PUBLIC "-//W3C//DTD SVG 1.1//EN" "http://www.w3.org/Graphics/SVG/1.1/DTD/svg11.dtd">
<svg version="1.1" id="Layer_1" xmlns="http://www.w3.org/2000/svg" xmlns:xlink="http://www.w3.org/1999/xlink" x="0px" y="0px"
	 width="18px" height="50px" viewBox="0 0 18 50" enable-background="new 0 0 18 50" xml:space="preserve">
<path fill-rule="evenodd" clip-rule="evenodd" fill="#706C75" d="M4.69,16c-0.977,0-1.87,0-2.817,0c0-2.655,0-5.3,0-8.002
	c-0.645,0-1.242,0-1.872,0c0-0.935,0-1.814,0-2.766c0.601,0,1.196,0,1.845,0c0-0.468-0.017-0.867,0.004-1.262
	c0.035-0.643,0.051-1.294,0.156-1.925c0.194-1.168,0.901-1.88,1.985-1.993C4.957-0.051,5.943,0.03,6.96,0.03
	c0,0.823,0,1.704,0,2.701c-0.472,0-0.956-0.02-1.437,0.005C4.864,2.77,4.692,2.965,4.673,3.668C4.658,4.155,4.67,4.643,4.67,5.214
	c0.777,0,1.533,0,2.33,0C6.903,6.178,6.816,7.055,6.724,7.967c-0.685,0-1.335,0-2.035,0C4.69,10.649,4.69,13.293,4.69,16z"/>
<path fill-rule="evenodd" clip-rule="evenodd" fill="#706C75" d="M13.391,21.905c0.517-0.141,1.031-0.282,1.546-0.423
	c0.02,0.019,0.043,0.038,0.063,0.057c-0.393,0.393-0.766,0.805-1.182,1.172c-0.228,0.199-0.347,0.378-0.35,0.694
	c-0.036,3.612-2.121,6.677-5.549,7.97c-2.612,0.985-5.201,0.807-7.674-0.529c-0.083-0.046-0.162-0.1-0.245-0.183
	c1.605,0.055,3.087-0.265,4.433-1.283c-0.693-0.064-1.28-0.25-1.788-0.632c-0.505-0.379-0.87-0.855-1.059-1.481
	c0.416,0,0.819,0,1.222,0c-1.446-0.529-2.235-1.492-2.326-3.004c0.429,0.118,0.822,0.228,1.214,0.337
	c0.016-0.022,0.031-0.04,0.047-0.061c-1.341-1.104-1.578-2.423-0.846-4.009c1.683,1.974,3.778,3.06,6.361,3.151
	c0-0.307-0.017-0.598,0.003-0.887c0.098-1.695,1.735-2.99,3.474-2.767c0.666,0.086,1.244,0.331,1.744,0.776
	c0.076,0.067,0.238,0.113,0.332,0.084c0.478-0.143,0.95-0.314,1.421-0.479c0.098-0.034,0.191-0.082,0.34-0.146
	c-0.219,0.7-0.635,1.184-1.203,1.561C13.377,21.849,13.384,21.877,13.391,21.905z"/>
<g>
	<g>
		<path fill="#706C75" d="M8.999,43.599c2.957-2.629,5.898-5.244,8.899-7.913c0.037,0.328,0.092,0.596,0.092,0.865
			c0.008,2.624,0.017,5.248,0.004,7.872c-0.007,1.521-1.024,2.574-2.443,2.574C11.209,46.999,6.867,46.999,2.526,47
			c-1.517,0-2.495-1.012-2.517-2.64c-0.017-1.293-0.003-2.586-0.002-3.878c0.001-1.322-0.001-2.643,0.008-3.965
			c0.002-0.252,0.05-0.504,0.084-0.833C3.103,38.355,6.047,40.974,8.999,43.599z"/>
		<path fill="#706C75" d="M8.998,41.912c-2.738-2.436-5.452-4.851-8.191-7.287c0.432-0.401,0.91-0.607,1.454-0.612
			c1.337-0.011,2.674-0.01,4.01-0.011C9.286,34.002,12.3,34.006,15.315,34c0.604-0.001,1.183,0.062,1.687,0.46
			c0.057,0.045,0.108,0.097,0.185,0.167C14.455,37.057,11.735,39.477,8.998,41.912z"/>
	</g>
</g>
</svg>
